<svg width="70" height="70" viewBox="0 0 70 70" fill="none" xmlns="http://www.w3.org/2000/svg">
<g clip-path="url(#clip0_13974_28952)">
<path d="M0 8.75C0 3.91751 3.91751 0 8.75 0H61.25C66.0825 0 70 3.91751 70 8.75V61.25C70 66.0825 66.0825 70 61.25 70H8.75C3.91751 70 0 66.0825 0 61.25V8.75Z" fill="#0074BF"/>
<path d="M55.4746 8.8374C48.4746 7.9624 42.0871 7.5249 35.0871 7.5249C27.8246 7.5249 21.5246 7.8749 14.6121 8.8374C12.5121 9.0999 11.2871 10.3249 11.2871 12.1624V53.1124C11.2871 54.4249 12.2496 55.2999 13.1246 55.5624L15.7496 55.9999V61.5124C15.7496 62.1249 16.2746 62.5624 16.9746 62.5624H21.1746C21.6996 62.5624 22.2246 62.1249 22.2246 61.5124V56.6124C25.6371 57.0499 30.2746 57.2249 34.9121 57.2249C39.6371 57.2249 44.4496 57.0499 47.7746 56.6124V61.5124C47.7746 62.1249 48.3871 62.5624 48.9121 62.5624H53.1121C53.8121 62.5624 54.3371 62.1249 54.3371 61.5124V55.9999L56.9621 55.5624C57.9246 55.2999 58.7996 54.5124 58.7996 53.1124V12.1624C58.7996 10.3249 57.5746 9.0999 55.4746 8.8374ZM55.0371 40.5124C55.0371 41.6499 54.5996 42.2624 53.1996 42.4374C48.2121 43.3124 41.6496 44.1874 35.2621 44.1874C28.5246 44.1874 22.1371 43.3999 17.0621 42.2624C15.6621 41.9999 15.1371 41.4749 15.1371 40.3374V14.7874C15.1371 13.6499 15.6621 12.8624 17.0621 12.8624L53.1996 13.0374C54.5996 13.0374 55.0371 13.8249 55.0371 14.9624V40.5124ZM18.8996 51.7999C17.5871 51.7124 16.5371 50.6624 16.5371 49.4374C16.6246 48.2999 17.6746 47.2499 18.8996 47.2499C20.1246 47.2499 21.1746 48.2999 21.1746 49.4374C21.1746 50.7499 20.1246 51.7999 18.8996 51.7999ZM50.8371 51.7999C49.6121 51.7124 48.5621 50.6624 48.5621 49.4374C48.6496 48.2999 49.6996 47.2499 50.8371 47.2499C52.0621 47.2499 53.1121 48.2999 53.1121 49.4374C53.1121 50.7499 52.0621 51.7999 50.8371 51.7999Z" fill="white"/>
</g>
<defs>
<clipPath id="clip0_13974_28952">
<rect width="70" height="70" fill="white"/>
</clipPath>
</defs>
</svg>
